<svg width="385" height="72" viewBox="0 0 385 72" fill="none" xmlns="http://www.w3.org/2000/svg">
<path d="M25.9409 55.8617C31.2451 55.8617 35.9052 54.6494 39.7697 52.3761L47.0441 59.8399L53.4091 54.2326L46.1348 46.7688C49.6962 42.1466 51.7042 35.8573 51.7042 28.3178C51.7042 13.7312 43.5963 0.773822 25.9409 0.773822C8.28551 0.773822 0.177655 13.7312 0.177655 28.3178C0.177655 42.9043 8.28551 55.8617 25.9409 55.8617ZM25.9409 47.1477C14.4232 47.1477 10.1799 38.32 10.1799 28.3178C10.1799 18.3156 14.4232 9.48787 25.9409 9.48787C37.4586 9.48787 41.702 18.3156 41.702 28.3178C41.702 32.7506 40.9821 36.7287 39.353 39.8734L32.306 32.6748L25.903 38.1306L33.291 45.708C31.2451 46.6552 28.8203 47.1477 25.9409 47.1477ZM90.731 55.104V17.2168H81.4865V38.32C81.4865 44.7608 78.3419 47.716 73.0756 47.716C68.7943 47.716 65.7255 44.7229 65.7255 38.8125V17.2168H56.481V39.9491C56.481 50.2166 61.9746 55.8617 70.3098 55.8617C74.6289 55.8617 78.645 53.9674 81.4865 50.6712V55.104H90.731ZM102.896 11.2307C105.813 11.2307 108.124 8.91956 108.124 6.00225C108.124 3.16071 105.813 0.773822 102.896 0.773822C99.9785 0.773822 97.6674 3.16071 97.6674 6.00225C97.6674 8.91956 99.9785 11.2307 102.896 11.2307ZM98.2357 17.2168V55.104H107.48V17.2168H98.2357ZM124.229 1.53157H114.985V55.104H124.229V43.8515L129.723 38.1306L140.407 55.104H151.319L135.936 32.258L150.523 17.2168H138.513L124.229 32.7506V1.53157ZM171.14 1.53157V55.104H180.384V17.5578L202.813 55.104H212.437V1.53157H203.192V39.0398L180.801 1.53157H171.14ZM238.509 1.53157V55.104H274.123V46.2005H248.132V32.3717H272.342V23.6577H248.132V10.2456H274.123V1.53157H238.509ZM277.801 44.1546C277.801 51.4289 282.689 55.8617 290.986 55.8617C296.404 55.8617 300.42 53.7401 303.337 49.6861L303.943 55.104H311.559V31.8792C311.559 22.5589 305.724 16.4591 295.532 16.4591C288.637 16.4591 283.484 19.0733 279.279 24.7564L286.364 29.8712C288.334 26.4992 291.478 24.5291 295.229 24.5291C299.7 24.5291 302.731 27.2948 302.731 32.5233H292.88C283.181 32.5233 277.801 36.8424 277.801 44.1546ZM292.88 48.057C289.205 48.057 287.273 46.3142 287.273 43.7379C287.273 41.0479 289.357 39.1914 293.562 39.1914H302.731C302.731 43.9273 298.26 48.057 292.88 48.057ZM330.732 55.8617C338.158 55.8617 345.433 52.0351 345.433 43.359C345.433 29.3029 325.125 33.4704 325.125 26.9917C325.125 25.1353 326.792 23.7713 330.051 23.7713C334.142 23.7713 336.378 26.0824 337.59 28.3178L344.826 24.2639C342.061 19.2628 337.135 16.4591 330.013 16.4591C321.602 16.4591 316.26 21.0056 316.26 27.6737C316.26 42.336 336.34 37.5244 336.34 44.4577C336.34 46.6552 334.37 48.2085 330.429 48.2085C326.83 48.2085 323.685 46.4657 321.602 42.3739L314.517 46.7309C317.131 52.7929 322.322 55.8617 330.732 55.8617ZM352.331 71.3576H362.371L384.005 17.2168H374.268L364.228 42.6012L355.021 17.2168H344.451L359.416 54.3463L352.331 71.3576Z" fill="#111111"/>
</svg>
